<?xml version="1.0" encoding="UTF-8"?>
<svg width="714px" height="105px" viewBox="0 0 714 105" version="1.1" xmlns="http://www.w3.org/2000/svg" xmlns:xlink="http://www.w3.org/1999/xlink">
    <!-- Generator: Sketch 54 (76480) - https://sketchapp.com -->
    <title>Artboard</title>
    <desc>Created with Sketch.</desc>
    <g id="Artboard" stroke="none" stroke-width="1" fill="none" fill-rule="evenodd">
        <path d="M-176.218147,85 L-176.000049,85 C-169.552896,79.2743375 -162.078408,76 -154.109073,76 C-146.139739,76 -138.665251,79.2743375 -132.218147,85 L-132.000049,85 C-125.552896,79.2743375 -118.078408,76 -110.109073,76 C-102.139739,76 -94.665251,79.2743375 -88.2181469,85 L-88.0000488,85 C-81.5528956,79.2743375 -74.0784076,76 -66.1090733,76 C-58.139739,76 -50.665251,79.2743375 -44.2181469,85 L-44.0000488,85 C-37.5528956,79.2743375 -30.0784076,76 -22.1090733,76 C-14.139739,76 -6.66525103,79.2743375 -0.218146927,85 L-4.88437266e-05,85 C6.44710439,79.2743375 13.9215924,76 21.8909267,76 C29.860261,76 37.334749,79.2743375 43.7818531,85 L43.9999512,85 C50.4471044,79.2743375 57.9215924,76 65.8909267,76 C73.860261,76 81.334749,79.2743375 87.7818531,85 L87.9999512,85 C94.4471044,79.2743375 101.921592,76 109.890927,76 C117.860261,76 125.334749,79.2743375 131.781853,85 L131.999951,85 C138.447104,79.2743375 145.921592,76 153.890927,76 C161.860261,76 169.334749,79.2743375 175.781853,85 L176,85 L176,105 L-220,105 L-220,85 C-213.552896,79.2743375 -206.078408,76 -198.109073,76 C-190.139739,76 -182.665251,79.2743375 -176.218147,85 Z" id="Combined-Shape" fill="#00A9FF"></path>
        <path d="M178,86.5814527 L178,103 L712,103 L712,90.4968333 L697.544617,99 L686.614835,99 L661.568854,88.9816077 L536.589299,82.982589 L414.635476,37 L387.23373,37 L178,86.5814527 Z" id="Path-2" stroke="#000000" stroke-width="4"></path>
        <circle id="Oval" stroke="#000000" stroke-width="2" cx="247" cy="51" r="13"></circle>
        <circle id="Oval" stroke="#000000" stroke-width="2" cx="402" cy="14.890625" r="13"></circle>
        <circle id="Oval" stroke="#000000" stroke-width="2" cx="482" cy="41.109375" r="13"></circle>
        <circle id="Oval" stroke="#000000" stroke-width="2" cx="565" cy="63" r="13"></circle>
        <circle id="Oval" stroke="#000000" stroke-width="2" cx="643.5" cy="67.109375" r="13"></circle>
        <circle id="Oval" stroke="#000000" stroke-width="2" cx="692" cy="78.109375" r="13"></circle>
        <path d="M249.973633,54.3984375 L244.016602,54.3984375 L242.678711,58.109375 L240.745117,58.109375 L246.174805,43.890625 L247.81543,43.890625 L253.254883,58.109375 L251.331055,58.109375 L249.973633,54.3984375 Z M244.583008,52.8554688 L249.416992,52.8554688 L246.995117,46.2050781 L244.583008,52.8554688 Z" id="A" fill="#000000" fill-rule="nonzero"></path>
        <path d="M397.161133,22 L397.161133,7.78125 L401.80957,7.78125 C403.352547,7.78125 404.513017,8.10025723 405.291016,8.73828125 C406.069014,9.37630527 406.458008,10.3203063 406.458008,11.5703125 C406.458008,12.2343783 406.269208,12.8219375 405.891602,13.3330078 C405.513996,13.8440781 404.999678,14.2395819 404.348633,14.5195312 C405.116866,14.7343761 405.723956,15.1429006 406.169922,15.7451172 C406.615888,16.3473337 406.838867,17.0651 406.838867,17.8984375 C406.838867,19.1744855 406.42546,20.1770797 405.598633,20.90625 C404.771806,21.6354203 403.603198,22 402.092773,22 L397.161133,22 Z M399.036133,15.3496094 L399.036133,20.4667969 L402.131836,20.4667969 C403.004236,20.4667969 403.692706,20.2405622 404.197266,19.7880859 C404.701825,19.3356097 404.954102,18.7122436 404.954102,17.9179688 C404.954102,16.2057206 404.023121,15.3496094 402.161133,15.3496094 L399.036133,15.3496094 Z M399.036133,13.8457031 L401.868164,13.8457031 C402.688481,13.8457031 403.344399,13.6406271 403.835938,13.2304688 C404.327476,12.8203104 404.573242,12.2636754 404.573242,11.5605469 C404.573242,10.779293 404.34538,10.2112648 403.889648,9.85644531 C403.433917,9.50162583 402.740565,9.32421875 401.80957,9.32421875 L399.036133,9.32421875 L399.036133,13.8457031 Z" id="B" fill="#000000" fill-rule="nonzero"></path>
        <path d="M487.473633,43.7070312 C487.297851,45.210945 486.742843,46.3714152 485.808594,47.1884766 C484.874344,48.0055379 483.632495,48.4140625 482.083008,48.4140625 C480.403312,48.4140625 479.057297,47.811855 478.044922,46.6074219 C477.032547,45.4029888 476.526367,43.7916768 476.526367,41.7734375 L476.526367,40.40625 C476.526367,39.0846288 476.762367,37.9225311 477.234375,36.9199219 C477.706383,35.9173127 478.375321,35.1474636 479.241211,34.6103516 C480.107101,34.0732395 481.109695,33.8046875 482.249023,33.8046875 C483.759448,33.8046875 484.970373,34.2262328 485.881836,35.0693359 C486.793299,35.9124391 487.323892,37.0794196 487.473633,38.5703125 L485.588867,38.5703125 C485.426106,37.4374943 485.072919,36.61719 484.529297,36.109375 C483.985674,35.60156 483.225591,35.3476562 482.249023,35.3476562 C481.051101,35.3476562 480.111983,35.7903602 479.431641,36.6757812 C478.751299,37.5612023 478.411133,38.8209554 478.411133,40.4550781 L478.411133,41.8320312 C478.411133,43.3750077 478.733395,44.602209 479.37793,45.5136719 C480.022464,46.4251348 480.924148,46.8808594 482.083008,46.8808594 C483.12468,46.8808594 483.923825,46.6448591 484.480469,46.1728516 C485.037112,45.700844 485.406575,44.8789121 485.588867,43.7070312 L487.473633,43.7070312 Z" id="C" fill="#000000" fill-rule="nonzero"></path>
        <path d="M559.858398,70.109375 L559.858398,55.890625 L563.87207,55.890625 C565.109056,55.890625 566.202795,56.1640598 567.15332,56.7109375 C568.103846,57.2578152 568.837888,58.0358022 569.355469,59.0449219 C569.873049,60.0540415 570.135091,61.2128841 570.141602,62.5214844 L570.141602,63.4296875 C570.141602,64.77084 569.882815,65.9459585 569.365234,66.9550781 C568.847654,67.9641978 568.108729,68.7389296 567.148438,69.2792969 C566.188146,69.8196642 565.069993,70.0963541 563.793945,70.109375 L559.858398,70.109375 Z M561.733398,57.4335938 L561.733398,68.5761719 L563.706055,68.5761719 C565.151374,68.5761719 566.276038,68.1269576 567.080078,67.2285156 C567.884119,66.3300736 568.286133,65.0507896 568.286133,63.390625 L568.286133,62.5605469 C568.286133,60.9459555 567.906905,59.6910852 567.148438,58.7958984 C566.38997,57.9007117 565.314135,57.4466146 563.920898,57.4335938 L561.733398,57.4335938 Z" id="D" fill="#000000" fill-rule="nonzero"></path>
        <polygon id="E" fill="#000000" fill-rule="nonzero" points="647.020508 67.6464844 640.858398 67.6464844 640.858398 72.6855469 648.016602 72.6855469 648.016602 74.21875 638.983398 74.21875 638.983398 60 647.918945 60 647.918945 61.5429688 640.858398 61.5429688 640.858398 66.1132812 647.020508 66.1132812"></polygon>
        <polygon id="F" fill="#000000" fill-rule="nonzero" points="695.4375 78.9394531 689.470703 78.9394531 689.470703 85.21875 687.595703 85.21875 687.595703 71 696.404297 71 696.404297 72.5429688 689.470703 72.5429688 689.470703 77.40625 695.4375 77.40625"></polygon>
    </g>
</svg>